<?xml version="1.0" encoding="UTF-8"?>
<svg fill="#fff" xmlns="http://www.w3.org/2000/svg" xmlns:xlink="http://www.w3.org/1999/xlink" width="48px" height="48px" viewBox="0 0 48 48" version="1.1">
<g id="surface1">
<path  d="M 33.25 20.199219 C 30.398438 16.773438 27.546875 13.347656 24.695312 9.921875 C 24.484375 9.671875 24.238281 9.578125 24 9.59375 C 23.761719 9.578125 23.515625 9.671875 23.304688 9.921875 C 20.453125 13.347656 17.601562 16.773438 14.75 20.199219 C 14.222656 20.832031 14.527344 21.878906 15.445312 21.878906 L 19.035156 21.878906 L 19.035156 37.421875 C 19.035156 37.957031 19.480469 38.40625 20.015625 38.40625 L 27.984375 38.40625 C 28.519531 38.40625 28.964844 37.957031 28.964844 37.421875 L 28.964844 21.878906 L 32.554688 21.878906 C 33.472656 21.878906 33.777344 20.832031 33.25 20.199219 Z M 33.25 20.199219 "/>
<path  d="M 24 0 C 10.746094 0 0 10.746094 0 24 C 0 37.253906 10.746094 48 24 48 C 37.253906 48 48 37.253906 48 24 C 48 10.746094 37.253906 0 24 0 Z M 24 44.160156 C 12.867188 44.160156 3.839844 35.132812 3.839844 24 C 3.839844 12.867188 12.867188 3.839844 24 3.839844 C 35.132812 3.839844 44.160156 12.867188 44.160156 24 C 44.160156 35.132812 35.132812 44.160156 24 44.160156 Z M 24 44.160156 "/>
</g>
</svg>
