<?xml version="1.0" encoding="UTF-8"?>
<svg xmlns="http://www.w3.org/2000/svg" xmlns:xlink="http://www.w3.org/1999/xlink" width="36px" height="36px" viewBox="0 0 36 36" version="1.1">
<g id="surface1">
<path style=" stroke:none;fill-rule:nonzero;fill:rgb(100%,30.196078%,13.72549%);fill-opacity:1;" d="M 8.25 0.75 L 3.75 0.75 C 1.683594 0.75 0 2.433594 0 4.5 L 0 16.5 C 0 18.566406 1.683594 20.25 3.75 20.25 L 11.25 20.25 C 11.664062 20.25 12 19.914062 12 19.5 L 12 4.5 C 12 2.433594 10.316406 0.75 8.25 0.75 Z M 36 14.625 C 36 13.324219 35.253906 12.183594 34.148438 11.625 C 34.378906 11.164062 34.5 10.65625 34.5 10.125 C 34.5 8.824219 33.753906 7.679688 32.644531 7.125 C 32.988281 6.441406 33.089844 5.652344 32.914062 4.871094 C 32.578125 3.351562 31.152344 2.25 29.519531 2.25 L 15.75 2.25 C 15.242188 2.25 14.597656 2.332031 13.9375 2.480469 C 13.535156 2.574219 13.28125 2.972656 13.371094 3.375 C 13.457031 3.769531 13.5 4.136719 13.5 4.5 L 13.5 19.5 C 13.5 19.902344 13.386719 20.292969 13.167969 20.65625 C 13.039062 20.871094 13.023438 21.132812 13.128906 21.359375 L 16.5 28.664062 L 16.5 33.75 C 16.5 33.976562 16.601562 34.191406 16.78125 34.335938 C 16.828125 34.375 17.941406 35.25 19.5 35.25 C 21.234375 35.25 24 32.503906 24 29.25 C 24 27.199219 23.265625 24.644531 22.808594 23.25 L 32.070312 23.25 C 34.089844 23.25 35.808594 21.757812 35.984375 19.851562 C 36.082031 18.78125 35.726562 17.753906 35.023438 16.988281 C 35.640625 16.367188 36 15.527344 36 14.625 Z M 36 14.625 "/>
</g>
</svg>
