<?xml version="1.0" encoding="UTF-8"?>
<svg xmlns="http://www.w3.org/2000/svg" xmlns:xlink="http://www.w3.org/1999/xlink" width="36px" height="36px" viewBox="0 0 36 36" version="1.1">
<g id="surface1">
<path style=" stroke:none;fill-rule:nonzero;fill:rgb(100%,30.196078%,13.72549%);fill-opacity:1;" d="M 10.152344 18.738281 C 10.203125 18.589844 10.261719 18.429688 10.328125 18.257812 C 10.609375 17.566406 11.074219 16.714844 11.796875 15.957031 C 15.195312 13.347656 18.753906 3.550781 18.753906 3.550781 C 18.753906 3.550781 18.199219 0 19.859375 0 C 21.523438 0 25.472656 1.109375 23.101562 8.292969 C 20.730469 15.484375 23.101562 14.375 23.101562 14.375 C 23.648438 14.25 24.148438 14.148438 24.628906 14.066406 C 24.628906 14.066406 31.476562 12.53125 34 14.839844 C 36.023438 16.6875 34.449219 19.125 34.449219 19.125 C 34.449219 19.125 37.292969 21.65625 34.398438 24.683594 C 34.398438 24.683594 36.25 27.746094 32.996094 30.191406 C 32.996094 30.191406 34.507812 34.40625 28.460938 35.691406 C 26.683594 36.070312 24.445312 36.054688 22.332031 35.890625 C 17.054688 36.003906 11.804688 35.316406 11.804688 35.316406 L 8.410156 20.542969 C 9.433594 19.921875 9.921875 19.203125 10.152344 18.738281 Z M 0.308594 20.746094 L 0.300781 35.515625 L 8.328125 35.515625 C 9.042969 35.515625 9.507812 34.945312 9.359375 34.246094 L 6.792969 22.019531 C 6.644531 21.316406 5.941406 20.746094 5.226562 20.746094 Z M 0.308594 20.746094 "/>
</g>
</svg>
