<?xml version="1.0" encoding="UTF-8"?>
<svg xmlns="http://www.w3.org/2000/svg" xmlns:xlink="http://www.w3.org/1999/xlink" width="36px" height="36px" viewBox="0 0 36 36" version="1.1">
<g id="surface1">
<path style=" stroke:none;fill-rule:nonzero;fill:rgb(0%,0%,0%);fill-opacity:1;" d="M 35.355469 17.175781 C 35.042969 16.773438 27.546875 7.320312 18 7.320312 C 8.453125 7.320312 0.957031 16.773438 0.644531 17.175781 L 0 18 L 0.644531 18.824219 C 0.957031 19.226562 8.453125 28.679688 18 28.679688 C 27.546875 28.679688 35.042969 19.226562 35.355469 18.824219 L 36 18 Z M 18 26.003906 C 11.285156 26.003906 5.425781 20.191406 3.457031 18 C 5.425781 15.808594 11.285156 9.996094 18 9.996094 C 24.714844 9.996094 30.574219 15.808594 32.546875 18 C 30.574219 20.191406 24.714844 26.003906 18 26.003906 Z M 18 26.003906 "/>
<path style=" stroke:none;fill-rule:nonzero;fill:rgb(0%,0%,0%);fill-opacity:1;" d="M 18 10.6875 C 13.964844 10.6875 10.683594 13.96875 10.683594 18 C 10.683594 22.035156 13.964844 25.316406 18 25.316406 C 22.035156 25.316406 25.316406 22.035156 25.316406 18 C 25.316406 13.96875 22.035156 10.6875 18 10.6875 Z M 18 22.640625 C 15.441406 22.640625 13.359375 20.558594 13.359375 18 C 13.359375 15.441406 15.441406 13.359375 18 13.359375 C 20.558594 13.359375 22.640625 15.441406 22.640625 18 C 22.640625 20.558594 20.558594 22.640625 18 22.640625 Z M 18 22.640625 "/>
</g>
</svg>
