<?xml version="1.0" standalone="no"?>
<!DOCTYPE svg PUBLIC "-//W3C//DTD SVG 20010904//EN"
 "http://www.w3.org/TR/2001/REC-SVG-20010904/DTD/svg10.dtd">
<svg version="1.0" xmlns="http://www.w3.org/2000/svg"
 width="64.000000pt" height="64.000000pt" fill="#000000"  viewBox="0 0 64.000000 64.000000"
 preserveAspectRatio="xMidYMid meet">

<g transform="translate(0.000000,64.000000) scale(0.100000,-0.100000)"
stroke="none">
<path d="M338 599 c-54 -56 -86 -128 -94 -211 -6 -60 -8 -66 -24 -58 -10 5
-25 28 -34 50 -21 52 -42 50 -74 -8 -70 -127 -18 -288 113 -348 65 -31 126
-31 190 0 99 47 152 136 142 242 -7 69 -30 122 -101 227 -25 37 -48 83 -52
102 -3 19 -11 38 -16 41 -5 3 -28 -13 -50 -37z m32 -405 c26 -45 31 -63 26
-92 -15 -100 -139 -95 -153 6 -6 42 3 52 24 31 19 -19 43 -2 43 30 0 26 18 81
26 81 1 0 17 -25 34 -56z"/>
</g>
</svg>
