<?xml version="1.0" standalone="no"?>
<!DOCTYPE svg PUBLIC "-//W3C//DTD SVG 20010904//EN"
 "http://www.w3.org/TR/2001/REC-SVG-20010904/DTD/svg10.dtd">
<svg version="1.0" xmlns="http://www.w3.org/2000/svg"
     width="64.000000pt" height="64.000000pt" fill="#000000" viewBox="0 0 64.000000 64.000000"
     preserveAspectRatio="xMidYMid meet">

    <g transform="translate(0.000000,64.000000) scale(0.100000,-0.100000)"
       stroke="none">
        <path d="M153 498 c-79 -79 -146 -153 -149 -165 -8 -29 12 -62 41 -69 25 -6
25 -8 25 -115 0 -99 2 -110 22 -129 19 -18 33 -20 93 -18 l70 3 5 95 5 95 55
0 55 0 5 -95 5 -95 70 -3 c60 -2 74 0 93 18 20 19 22 30 22 129 0 107 0 109
25 115 29 7 49 40 41 69 -3 12 -70 86 -149 165 -103 101 -150 142 -167 142
-17 0 -64 -41 -167 -142z"/>
    </g>
</svg>
