<?xml version="1.0" standalone="no"?>
<!DOCTYPE svg PUBLIC "-//W3C//DTD SVG 20010904//EN"
 "http://www.w3.org/TR/2001/REC-SVG-20010904/DTD/svg10.dtd">
<svg version="1.0" xmlns="http://www.w3.org/2000/svg"
 width="64.000000pt" height="64.000000pt" fill="#000000" viewBox="0 0 64.000000 64.000000"
 preserveAspectRatio="xMidYMid meet">

<g transform="translate(0.000000,64.000000) scale(0.100000,-0.100000)"
 stroke="none">
<path d="M125 589 c-16 -25 18 -29 201 -27 160 3 189 5 189 18 0 13 -29 15
-192 18 -132 2 -194 -1 -198 -9z"/>
<path d="M85 509 c-16 -25 20 -29 241 -27 196 3 229 5 229 18 0 13 -34 15
-232 18 -161 2 -234 -1 -238 -9z"/>
<path d="M60 420 c-18 -18 -20 -33 -20 -180 0 -147 2 -162 20 -180 19 -19 33
-20 260 -20 227 0 241 1 260 20 18 18 20 33 20 180 0 147 -2 162 -20 180 -19
19 -33 20 -260 20 -227 0 -241 -1 -260 -20z m270 -125 c50 -25 90 -50 90 -55
0 -13 -178 -102 -190 -95 -11 7 -14 178 -3 188 9 10 5 11 103 -38z"/>
<path d="M260 240 l0 -50 45 22 c25 12 45 25 45 28 0 3 -20 16 -45 28 l-45 22
0 -50z"/>
</g>
</svg>
