<?xml version="1.0" standalone="no"?>
<!DOCTYPE svg PUBLIC "-//W3C//DTD SVG 20010904//EN"
 "http://www.w3.org/TR/2001/REC-SVG-20010904/DTD/svg10.dtd">
<svg version="1.0" xmlns="http://www.w3.org/2000/svg"
 width="64.000000pt" height="64.000000pt" fill="#000000" viewBox="0 0 64.000000 64.000000"
 preserveAspectRatio="xMidYMid meet">

<g transform="translate(0.000000,64.000000) scale(0.100000,-0.100000)"
 stroke="none">
<path d="M248 619 c-43 -22 -78 -81 -78 -130 0 -72 78 -149 150 -149 72 0 150
77 150 149 0 51 -35 108 -80 131 -49 25 -94 25 -142 -1z"/>
<path d="M175 301 c-50 -22 -101 -79 -115 -128 -6 -21 -10 -67 -8 -103 l3 -65
265 0 265 0 3 65 c4 81 -10 130 -51 177 -51 58 -95 73 -217 73 -80 0 -114 -5
-145 -19z"/>
</g>
</svg>
